<?xml version="1.0" standalone="no"?>
<!DOCTYPE svg PUBLIC "-//W3C//DTD SVG 20010904//EN"
 "http://www.w3.org/TR/2001/REC-SVG-20010904/DTD/svg10.dtd">
<svg version="1.0" xmlns="http://www.w3.org/2000/svg"
 width="160.000000pt" height="160.000000pt" viewBox="0 0 160.000000 160.000000"
 preserveAspectRatio="xMidYMid meet">
<metadata>
Created by potrace 1.15, written by Peter Selinger 2001-2017
</metadata>
<g transform="translate(0.000000,160.000000) scale(0.100000,-0.100000)"
fill="#000000" stroke="none">
<path d="M294 1366 c-50 -50 -50 -122 0 -172 30 -30 40 -34 86 -34 46 0 56 4
86 34 30 30 34 40 34 86 0 75 -45 120 -120 120 -46 0 -56 -4 -86 -34z m136
-36 c43 -43 11 -120 -50 -120 -38 0 -70 32 -70 70 0 38 32 70 70 70 17 0 39
-9 50 -20z"/>
<path d="M1193 1365 c-35 -35 -36 -37 -30 -101 3 -39 11 -72 20 -81 9 -9 42
-17 81 -20 64 -6 66 -5 101 30 31 31 35 41 35 87 0 46 -4 56 -34 86 -30 30
-40 34 -86 34 -46 0 -56 -4 -87 -35z m137 -35 c11 -11 20 -33 20 -50 0 -17 -9
-39 -20 -50 -11 -11 -33 -20 -50 -20 -17 0 -39 9 -50 20 -43 43 -11 120 50
120 17 0 39 -9 50 -20z"/>
<path d="M670 1073 c-30 -14 -62 -27 -70 -27 -8 -1 -34 -39 -57 -85 -39 -76
-43 -90 -43 -157 0 -42 6 -90 14 -109 8 -19 12 -34 8 -34 -22 4 -32 -3 -32
-22 0 -18 4 -21 28 -16 23 5 33 0 54 -26 45 -58 120 -90 228 -98 70 -6 98 -4
105 5 6 6 31 24 57 39 26 15 59 43 73 61 18 24 31 32 45 29 26 -7 39 25 18 41
-10 7 -12 18 -7 31 4 11 8 54 8 96 1 65 -3 84 -29 136 -17 33 -29 71 -28 84 3
20 -1 24 -27 25 -16 0 -55 12 -85 27 -78 38 -182 38 -260 0z m224 -37 c49 -20
112 -81 135 -130 25 -50 28 -149 7 -200 -20 -49 -81 -112 -130 -135 -50 -25
-149 -28 -200 -7 -49 20 -112 81 -135 130 -25 50 -28 149 -7 200 20 48 80 111
129 135 50 25 150 28 201 7z"/>
<path d="M786 965 c-3 -8 -14 -15 -25 -15 -11 0 -29 -12 -40 -26 -39 -50 -19
-116 39 -129 27 -6 30 -10 30 -46 0 -43 -13 -50 -32 -19 -8 12 -24 20 -41 20
-25 0 -27 -3 -21 -22 10 -34 33 -56 65 -63 16 -4 29 -11 29 -16 0 -5 7 -9 15
-9 8 0 15 4 15 9 0 5 11 12 25 15 67 17 90 105 39 145 -15 12 -35 21 -45 21
-16 0 -19 8 -19 42 l0 41 23 -21 c20 -19 67 -31 67 -18 0 26 -26 60 -55 72
-19 8 -35 19 -35 24 0 16 -27 12 -34 -5z"/>
<path d="M1269 621 c-13 -10 -33 -21 -44 -23 -12 -2 -18 -10 -16 -19 2 -8 7
-38 11 -68 9 -75 48 -111 121 -111 45 0 55 4 85 34 30 30 34 40 34 86 0 46 -4
56 -34 86 -30 30 -41 34 -84 34 -33 0 -57 -6 -73 -19z m121 -51 c43 -43 11
-120 -50 -120 -38 0 -70 32 -70 70 0 38 32 70 70 70 17 0 39 -9 50 -20z"/>
<path d="M174 586 c-50 -50 -50 -122 0 -172 30 -30 40 -34 86 -34 46 0 56 4
86 34 28 28 34 41 34 78 0 24 5 49 12 56 13 13 -8 45 -26 39 -6 -2 -22 4 -35
14 -16 13 -40 19 -73 19 -43 0 -54 -4 -84 -34z m136 -36 c43 -43 11 -120 -50
-120 -38 0 -70 32 -70 70 0 38 32 70 70 70 17 0 39 -9 50 -20z"/>
<path d="M878 334 c-33 -40 -38 -54 -38 -96 0 -43 4 -54 34 -84 30 -30 40 -34
86 -34 46 0 56 4 86 34 30 30 34 40 34 86 0 46 -4 56 -34 86 -24 24 -43 34
-64 34 -17 0 -34 5 -37 10 -12 19 -30 9 -67 -36z m132 -44 c43 -43 11 -120
-50 -120 -38 0 -70 32 -70 70 0 38 32 70 70 70 17 0 39 -9 50 -20z"/>
</g>
</svg>
