<?xml version="1.0" standalone="no"?>
<!DOCTYPE svg PUBLIC "-//W3C//DTD SVG 20010904//EN"
 "http://www.w3.org/TR/2001/REC-SVG-20010904/DTD/svg10.dtd">
<svg version="1.0" xmlns="http://www.w3.org/2000/svg"
 width="100.000000pt" height="100.000000pt" viewBox="0 0 100.000000 100.000000"
 preserveAspectRatio="xMidYMid meet">
<metadata>
Created by potrace 1.15, written by Peter Selinger 2001-2017
</metadata>
<g transform="translate(0.000000,100.000000) scale(0.100000,-0.100000)"
fill="#000000" stroke="none">
<path d="M75 819 c-55 -29 -57 -32 -41 -55 14 -18 16 -18 43 -3 77 46 147 42
207 -12 l34 -29 -29 -53 c-23 -42 -29 -64 -29 -116 0 -85 16 -134 61 -185 57
-64 123 -89 220 -84 l76 5 22 -33 c40 -58 95 -88 170 -92 54 -3 76 0 114 18
56 27 60 32 43 55 -13 17 -15 17 -58 -3 -83 -41 -156 -26 -216 43 l-32 36 37
32 c113 100 111 299 -6 398 -74 64 -193 79 -286 35 l-50 -23 -17 22 c-47 63
-185 85 -263 44z m405 -169 l0 -50 50 0 50 0 0 -50 0 -50 50 0 50 0 0 -53 c0
-49 -12 -77 -32 -77 -4 0 -8 20 -8 45 l0 45 -50 0 -50 0 0 50 0 50 -50 0 -50
0 0 50 0 50 -45 0 c-25 0 -45 4 -45 8 0 20 28 32 77 32 l53 0 0 -50z"/>
</g>
</svg>
