<?xml version="1.0" standalone="no"?>
<!DOCTYPE svg PUBLIC "-//W3C//DTD SVG 20010904//EN"
 "http://www.w3.org/TR/2001/REC-SVG-20010904/DTD/svg10.dtd">
<svg version="1.0" xmlns="http://www.w3.org/2000/svg"
 width="80.000000pt" height="80.000000pt" viewBox="0 0 80.000000 80.000000"
 preserveAspectRatio="xMidYMid meet">
<metadata>
Created by potrace 1.15, written by Peter Selinger 2001-2017
</metadata>
<g transform="translate(0.000000,80.000000) scale(0.100000,-0.100000)"
fill="#000000" stroke="none">
<path d="M345 528 c-11 -6 -30 -20 -43 -31 -17 -16 -25 -18 -34 -9 -17 17 -28
15 -28 -4 0 -10 6 -14 15 -10 16 6 19 -5 15 -56 -3 -52 39 -106 98 -126 41
-14 102 7 132 46 26 33 28 123 3 153 -38 45 -112 63 -158 37z m123 -53 c32
-38 30 -89 -7 -126 -47 -46 -125 -31 -150 29 -16 39 -5 77 32 108 39 33 91 28
125 -11z"/>
</g>
</svg>
