<?xml version="1.0" standalone="no"?>
<!DOCTYPE svg PUBLIC "-//W3C//DTD SVG 20010904//EN"
 "http://www.w3.org/TR/2001/REC-SVG-20010904/DTD/svg10.dtd">
<svg version="1.0" xmlns="http://www.w3.org/2000/svg"
 width="96.000000pt" height="96.000000pt" viewBox="0 0 96.000000 96.000000"
 preserveAspectRatio="xMidYMid meet">
<metadata>
Created by potrace 1.15, written by Peter Selinger 2001-2017
</metadata>
<g transform="translate(0.000000,96.000000) scale(0.100000,-0.100000)"
fill="#000000" stroke="none">
<path d="M420 848 c-16 -18 -21 -34 -19 -70 3 -44 -12 -78 -32 -78 -5 0 -9 19
-9 43 0 52 -13 67 -60 67 -46 0 -60 -15 -60 -64 0 -23 -7 -50 -15 -60 -8 -11
-15 -35 -15 -53 0 -23 -5 -33 -15 -33 -8 0 -15 -7 -15 -15 0 -13 40 -15 300
-15 260 0 300 2 300 15 0 8 -7 15 -15 15 -10 0 -15 10 -15 33 0 18 -7 42 -15
53 -8 10 -15 37 -15 60 0 49 -14 64 -60 64 -47 0 -60 -15 -60 -67 0 -24 -4
-43 -9 -43 -20 0 -35 34 -32 77 2 35 -2 50 -20 69 -30 32 -90 33 -119 2z"/>
<path d="M155 527 c-3 -7 -4 -107 -3 -222 l3 -210 325 0 325 0 0 220 0 220
-323 3 c-256 2 -324 0 -327 -11z m613 -29 c17 -17 17 -289 0 -306 -17 -17
-559 -17 -576 0 -17 17 -17 289 0 306 17 17 559 17 576 0z m2 -363 c-19 -22
-561 -22 -580 0 -11 13 22 15 290 15 268 0 301 -2 290 -15z"/>
<path d="M276 454 c-4 -16 -18 -30 -36 -37 -29 -11 -30 -14 -30 -73 0 -58 2
-62 26 -68 16 -4 30 -18 37 -36 l11 -30 197 0 197 0 6 26 c4 16 18 30 36 37
29 11 30 14 30 72 0 58 -1 61 -30 72 -18 7 -32 21 -36 37 l-6 26 -198 0 -198
0 -6 -26z m376 -34 c9 -17 29 -35 43 -42 33 -15 33 -51 0 -66 -14 -7 -34 -25
-43 -42 l-17 -30 -155 0 -155 0 -17 30 c-9 17 -29 35 -43 42 -35 16 -33 49 5
70 17 9 35 29 42 43 l11 25 156 0 156 0 17 -30z"/>
<path d="M420 398 c-47 -50 -9 -128 62 -128 68 0 103 83 55 128 -31 30 -89 30
-117 0z"/>
</g>
</svg>
