<?xml version="1.0" standalone="no"?>
<!DOCTYPE svg PUBLIC "-//W3C//DTD SVG 20010904//EN"
 "http://www.w3.org/TR/2001/REC-SVG-20010904/DTD/svg10.dtd">
<svg version="1.0" xmlns="http://www.w3.org/2000/svg"
 width="700.000000pt" height="433.000000pt" viewBox="0 0 700.000000 433.000000"
 preserveAspectRatio="xMidYMid meet">
<metadata>
Created by potrace 1.15, written by Peter Selinger 2001-2017
</metadata>
<g transform="translate(0.000000,433.000000) scale(0.100000,-0.100000)"
fill="#000000" stroke="none">
<path d="M3155 3931 c-12 -5 -26 -15 -32 -22 -9 -12 -21 -166 -23 -306 0 -28
-5 -33 -47 -49 -27 -9 -83 -32 -126 -51 l-79 -35 -112 111 c-99 97 -117 111
-147 111 -31 0 -55 -21 -276 -243 -300 -301 -290 -266 -133 -427 l110 -113
-34 -76 c-18 -42 -42 -98 -53 -126 l-19 -50 -163 -5 c-156 -5 -164 -6 -182
-29 -18 -22 -19 -44 -19 -362 l0 -338 24 -28 24 -28 161 -3 160 -3 17 -52 c9
-29 32 -86 51 -127 l34 -74 -111 -111 c-98 -98 -110 -114 -110 -145 0 -33 18
-54 243 -278 306 -306 266 -297 459 -103 131 131 138 141 138 178 0 42 -17 65
-57 77 -33 10 -58 -7 -166 -112 l-97 -97 -167 167 -167 167 107 109 c67 68
107 117 107 130 0 11 -23 67 -50 124 -28 57 -62 140 -76 185 -39 125 -36 123
-214 123 l-150 0 0 235 0 235 129 0 c134 0 185 10 201 40 5 10 24 60 41 112
17 51 51 132 76 180 34 67 43 95 38 116 -3 18 -43 66 -105 127 l-100 100 167
167 167 168 107 -105 c69 -68 114 -105 128 -105 11 0 67 22 124 50 56 27 140
61 187 76 47 15 92 33 100 41 12 10 16 48 20 166 l5 152 235 0 235 0 5 -153
c6 -179 -1 -167 123 -207 45 -14 128 -48 184 -75 57 -28 113 -50 124 -50 14 0
59 37 128 105 l107 105 167 -168 167 -167 -100 -100 c-59 -59 -102 -110 -105
-126 -5 -20 6 -51 40 -119 25 -50 60 -132 76 -183 17 -51 35 -100 40 -109 14
-27 74 -38 207 -38 l122 0 0 -235 0 -235 -150 0 c-178 0 -175 2 -215 -128 -15
-48 -49 -131 -76 -185 -27 -53 -49 -107 -49 -119 0 -13 39 -60 107 -130 l107
-109 -167 -167 -167 -167 -97 97 c-54 52 -108 101 -120 107 -50 26 -103 -15
-103 -78 0 -31 14 -48 138 -173 193 -192 152 -202 459 104 225 225 243 245
243 278 0 31 -12 47 -111 146 l-111 111 25 49 c14 27 37 84 52 126 l27 77 160
3 160 3 24 28 24 28 0 338 c0 318 -1 340 -19 362 -18 23 -26 24 -182 29 l-163
5 -15 40 c-7 22 -31 79 -53 126 l-38 87 110 109 c160 159 170 128 -133 430
-221 222 -245 243 -276 243 -30 0 -48 -14 -147 -111 l-112 -111 -79 35 c-43
19 -99 42 -125 52 l-46 17 -4 159 c-4 224 35 203 -386 206 -185 1 -346 -2
-357 -6z"/>
<path d="M3301 3259 c-324 -70 -574 -264 -716 -554 -83 -170 -100 -245 -99
-450 0 -141 4 -183 22 -247 55 -199 132 -329 297 -498 163 -168 240 -281 280
-410 24 -79 35 -97 64 -109 82 -32 512 -161 538 -161 57 0 86 43 70 102 -10
37 -24 43 -286 124 -209 64 -224 71 -233 97 -20 56 -89 189 -129 250 -23 34
-97 118 -164 187 -131 135 -170 186 -221 290 -56 116 -75 192 -81 335 -12 265
64 463 246 646 101 100 166 145 282 192 129 53 178 62 334 62 114 -1 154 -5
218 -23 382 -109 637 -443 638 -833 0 -120 -13 -196 -53 -306 -46 -128 -112
-220 -267 -373 -135 -133 -185 -200 -224 -298 -34 -86 -10 -142 62 -142 44 0
60 15 85 80 30 77 71 131 182 240 176 173 240 260 304 419 53 130 65 202 65
381 0 200 -18 277 -100 445 -130 268 -372 466 -660 541 -140 37 -322 42 -454
13z"/>
<path d="M3590 2804 c-141 -34 -232 -61 -243 -72 -21 -22 -257 -616 -257 -649
0 -71 41 -89 162 -68 50 9 92 14 94 12 2 -2 -18 -100 -46 -216 -27 -117 -50
-228 -50 -247 0 -44 30 -74 73 -74 42 0 57 16 223 235 378 498 484 655 484
720 0 30 -41 75 -67 75 -10 0 -58 -7 -107 -16 -48 -8 -90 -13 -92 -12 -2 2 31
55 72 117 94 140 105 165 92 203 -22 63 -50 62 -338 -8z m80 -151 c0 -5 -36
-62 -80 -128 -44 -66 -80 -130 -80 -143 0 -33 28 -70 58 -76 15 -4 65 1 112 9
110 19 113 19 101 -2 -15 -28 -291 -398 -291 -391 0 4 11 52 25 108 26 111 24
137 -19 165 -21 14 -35 15 -106 4 -44 -6 -84 -9 -87 -6 -3 4 30 97 74 209 l80
203 99 27 c114 30 114 30 114 21z"/>
<path d="M3192 770 c-30 -28 -29 -80 1 -107 27 -26 484 -147 513 -137 37 13
54 37 54 74 0 58 -26 73 -190 115 -80 20 -178 45 -217 56 -93 25 -134 24 -161
-1z"/>
</g>
</svg>
